<?xml version="1.0" encoding="UTF-8" standalone="no"?>
<!-- Created with Inkscape (http://www.inkscape.org/) -->

<svg
   width="120"
   height="120"
   viewBox="0 0 120 120"
   version="1.1"
   id="svg1"
   inkscape:version="1.3.2 (091e20ef0f, 2023-11-25)"
   sodipodi:docname="logo.svg"
   inkscape:export-filename="logo.png"
   inkscape:export-xdpi="96"
   inkscape:export-ydpi="96"
   xmlns:inkscape="http://www.inkscape.org/namespaces/inkscape"
   xmlns:sodipodi="http://sodipodi.sourceforge.net/DTD/sodipodi-0.dtd"
   xmlns="http://www.w3.org/2000/svg"
   xmlns:svg="http://www.w3.org/2000/svg">
  <sodipodi:namedview
     id="namedview1"
     pagecolor="#ffffff"
     bordercolor="#000000"
     borderopacity="0.25"
     inkscape:showpageshadow="2"
     inkscape:pageopacity="0.0"
     inkscape:pagecheckerboard="0"
     inkscape:deskcolor="#d1d1d1"
     inkscape:document-units="px"
     inkscape:zoom="3.7625"
     inkscape:cx="69.634551"
     inkscape:cy="41.860465"
     inkscape:window-width="3840"
     inkscape:window-height="1080"
     inkscape:window-x="0"
     inkscape:window-y="28"
     inkscape:window-maximized="1"
     inkscape:current-layer="layer2-0" />
  <defs
     id="defs1">
    <clipPath
       clipPathUnits="userSpaceOnUse"
       id="clipPath8">
      <path
         style="fill:#d78dcc;fill-opacity:1;stroke-width:0.766829"
         d="m 49.192626,64.519163 -3.095285,4.576128 -10.411413,-0.147617 -3.51737,-6.642767 2.532506,-6.199916 -2.673201,-7.380852 4.361538,-5.46183 0.140695,-4.723746 4.220843,-3.98566 3.517369,-4.428512 7.597519,-0.738085 6.894044,-2.952341 5.487096,2.804724 h 6.894044 l 5.768486,4.576129 5.768486,2.361872 0.844168,4.723746 -0.562779,4.723745 -1.406948,6.347533 1.266253,4.723745 -4.361538,4.428512 -7.175433,-0.442851 -6.612655,5.018979 -6.612655,-1.623787 -2.813895,2.361873 z"
         id="path8" />
    </clipPath>
    <clipPath
       clipPathUnits="userSpaceOnUse"
       id="clipPath8-6">
      <path
         style="fill:#d78dcc;fill-opacity:1;stroke-width:0.766829"
         d="m 49.192626,64.519163 -3.095285,4.576128 -10.411413,-0.147617 -3.51737,-6.642767 2.532506,-6.199916 -2.673201,-7.380852 4.361538,-5.46183 0.140695,-4.723746 4.220843,-3.98566 3.517369,-4.428512 7.597519,-0.738085 6.894044,-2.952341 5.487096,2.804724 h 6.894044 l 5.768486,4.576129 5.768486,2.361872 0.844168,4.723746 -0.562779,4.723745 -1.406948,6.347533 1.266253,4.723745 -4.361538,4.428512 -7.175433,-0.442851 -6.612655,5.018979 -6.612655,-1.623787 -2.813895,2.361873 z"
         id="path8-3" />
    </clipPath>
    <filter
       style="color-interpolation-filters:sRGB;"
       inkscape:label="Drop Shadow"
       id="filter57"
       x="-0.046607111"
       y="0"
       width="1.0466071"
       height="1.0281285">
      <feFlood
         result="flood"
         in="SourceGraphic"
         flood-opacity="0.498039"
         flood-color="rgb(0,0,0)"
         id="feFlood56" />
      <feGaussianBlur
         result="blur"
         in="SourceGraphic"
         stdDeviation="0.000000"
         id="feGaussianBlur56" />
      <feOffset
         result="offset"
         in="blur"
         dx="-2.400000"
         dy="1.200000"
         id="feOffset56" />
      <feComposite
         result="comp1"
         operator="in"
         in="flood"
         in2="offset"
         id="feComposite56" />
      <feComposite
         result="comp2"
         operator="over"
         in="SourceGraphic"
         in2="comp1"
         id="feComposite57" />
    </filter>
  </defs>
  <g
     inkscape:label="Layer 1"
     inkscape:groupmode="layer"
     id="layer1">
    <circle
       style="fill:#5a6a99;stroke-width:1.13871;fill-opacity:1"
       id="path1"
       cx="60.265781"
       cy="60.132893"
       r="60" />
    <path
       style="fill:#e3dedb;fill-opacity:1;stroke-width:1.37938"
       d="m 58.735177,42.35753 -8.410859,-0.18177 -0.138643,8.40688 -1.478833,-4.862358 0.138643,-5.271342 9.011634,0.227212 z"
       id="path5-5-2" />
    <path
       style="fill:#e3dedb;fill-opacity:1;stroke-width:1.43015"
       d="m 52.674852,53.270526 -9.041352,-0.181769 -0.149036,8.406882 -1.589689,-4.862358 0.149037,-5.271343 9.687162,0.227213 z"
       id="path5-61-6" />
    <path
       style="fill:#e3dedb;fill-opacity:1;stroke-width:1.43702"
       d="m 55.896433,47.256069 -8.647294,-0.191882 -0.142541,8.874612 -1.520404,-5.132883 0.142542,-5.564624 9.264957,0.239855 z"
       id="path5-20-1" />
    <path
       style="fill:#e3dedb;fill-opacity:1;stroke-width:1.47385"
       d="m 49.634242,60.589841 -9.514221,-0.183455 -0.156831,8.484836 -1.672831,-4.907445 0.156832,-5.320223 10.193807,0.22932 z"
       id="path5-6-3" />
    <path
       style="fill:#e3dedb;fill-opacity:1;stroke-width:1.43637"
       d="m 46.641209,67.31692 -9.120163,-0.18177 -0.150336,8.406881 -1.603546,-4.862358 0.150337,-5.271343 9.771602,0.227214 z"
       id="path5-7-7" />
    <path
       style="fill:#e3dedb;fill-opacity:1;stroke-width:1.40872"
       d="m 42.75489,74.886203 -9.198975,-0.173343 -0.151635,8.017105 -1.617403,-4.63692 0.151636,-5.026942 9.856043,0.216679 z"
       id="path5-2-9" />
    <path
       style="fill:#e3dedb;fill-opacity:1;stroke-width:1.48821"
       d="m 40.730133,80.90029 -9.356598,-0.190197 -0.154233,8.796658 -1.645117,-5.087797 0.154234,-5.515743 10.024925,0.237748 z"
       id="path5-8" />
    <path
       id="rect3"
       style="fill:#3c3f46;fill-opacity:1;stroke-width:1.37878"
       d="M 35.811862,82.03087 57.230854,37.124865 c 0.339815,-0.712438 0.962842,-1.415716 2.158807,-1.421654 L 80.869795,35.59655 c 1.195965,-0.0059 2.408858,0.673814 2.158808,1.421653 L 67.978094,82.030862 c -0.250048,0.74784 -0.962829,1.421654 -2.158808,1.421654 H 37.970669 c -1.195979,0 -2.498622,-0.709215 -2.158807,-1.421654 z"
       sodipodi:nodetypes="sssssssss" />
    <path
       id="rect3-5"
       style="fill:#3c3f46;fill-opacity:1;stroke-width:1.37054"
       d="m 35.984393,88.819563 21.1637,-44.906005 c 0.33577,-0.712438 0.95137,-1.415716 2.13308,-1.421654 l 21.22412,-0.106661 c 1.18171,-0.0059 2.38015,0.673814 2.13308,1.421653 l -14.87113,45.012659 c -0.24707,0.74784 -0.95135,1.421654 -2.13308,1.421654 h -27.51669 c -1.18173,0 -2.46885,-0.709215 -2.13308,-1.421654 z"
       sodipodi:nodetypes="sssssssss" />
    <path
       style="fill:#222732;fill-opacity:1;stroke-width:1.02858"
       d="m 82.879492,35.895653 v 7.002235 L 67.280858,90.021036 v -8.705481 z"
       id="path4" />
    <rect
       style="fill:#222732;fill-opacity:1;stroke-width:1.00889"
       id="rect4"
       width="32.136944"
       height="9.2088327"
       x="35.707718"
       y="81.188072"
       rx="0.9015035"
       ry="1.3289034" />
    <path
       style="fill:#e3dedb;fill-opacity:1;stroke-width:1.48821"
       d="m 68.001923,83.142769 9.356598,-0.190197 0.154233,8.796657 1.645117,-5.087796 -0.154234,-5.515743 -10.024925,0.237748 z"
       id="path5" />
    <path
       style="fill:#e3dedb;fill-opacity:1;stroke-width:1.40872"
       d="m 70.684452,75.719167 9.198975,-0.173343 0.151635,8.017105 1.617403,-4.63692 -0.151636,-5.026942 -9.856043,0.216679 z"
       id="path5-2" />
    <path
       style="fill:#e3dedb;fill-opacity:1;stroke-width:1.43637"
       d="m 73.255225,68.431786 9.120163,-0.18177 0.150336,8.406881 1.603546,-4.862358 -0.150337,-5.271343 -9.771602,0.227214 z"
       id="path5-7" />
    <path
       style="fill:#e3dedb;fill-opacity:1;stroke-width:1.47385"
       d="m 75.590484,60.952966 9.514221,-0.183455 0.156831,8.484836 1.672831,-4.907445 -0.156832,-5.320223 -10.193807,0.22932 z"
       id="path5-6" />
    <path
       style="fill:#e3dedb;fill-opacity:1;stroke-width:1.43015"
       d="m 77.691418,54.197457 9.041352,-0.181769 0.149036,8.406882 1.589689,-4.862358 -0.149037,-5.271343 -9.687162,0.227213 z"
       id="path5-61" />
    <path
       style="fill:#e3dedb;fill-opacity:1;stroke-width:1.43702"
       d="m 79.879354,47.995065 8.647294,-0.191882 0.142541,8.874612 1.520404,-5.132883 -0.142542,-5.564624 -9.264957,0.239855 z"
       id="path5-20" />
    <path
       style="fill:#e3dedb;fill-opacity:1;stroke-width:1.37938"
       d="m 81.872389,42.53272 8.410859,-0.18177 0.138643,8.40688 1.478833,-4.862358 -0.138643,-5.271342 -9.011634,0.227212 z"
       id="path5-5" />
  </g>
  <g
     inkscape:groupmode="layer"
     id="layer2"
     inkscape:label="Layer 2">
    <path
       style="fill:#d78dcc;fill-opacity:1;stroke-width:0.766829"
       d="m 49.489644,64.584083 -3.095285,4.576128 -10.411413,-0.147617 -3.51737,-6.642767 2.532506,-6.199916 -2.673201,-7.380852 4.361538,-5.46183 0.140695,-4.723746 4.220843,-3.98566 3.517369,-4.428512 7.597519,-0.738085 6.894044,-2.952341 5.487096,2.804724 h 6.894044 l 5.768486,4.576129 5.768486,2.361872 0.844168,4.723746 -0.562779,4.723745 -1.406948,6.347533 1.266253,4.723745 -4.361538,4.428512 -7.175433,-0.442851 -6.612655,5.018979 -6.612655,-1.623787 -2.813895,2.361873 z"
       id="path6" />
    <path
       style="display:inline;fill:#a87ca1;fill-opacity:1"
       d="m 87.01407,40.218166 -9.584703,8.269156 -1.503483,9.208833 -7.705349,-1.127613 -8.457091,3.570772 -8.457092,-0.37587 -10.148509,3.194901 -3.570772,-0.751742 -1.315547,-7.893285 -2.44316,-3.946642 -22.552243,22.364307 c 0,0 77.617303,14.846893 78.744915,12.591669 C 91.148648,83.067428 87.01407,40.218166 87.01407,40.218166 Z"
       id="path7"
       clip-path="url(#clipPath8)" />
  </g>
  <g
     inkscape:groupmode="layer"
     id="layer2-0"
     inkscape:label="Layer 2"
     transform="matrix(0.7895977,0,0,1,27.481637,0.87985254)">
    <path
       style="fill:#d78dcc;fill-opacity:1;stroke-width:0.766829;filter:url(#filter57)"
       d="m 49.489644,64.584083 -3.095285,4.576128 -10.411413,-0.147617 -3.51737,-6.642767 2.532506,-6.199916 -2.673201,-7.380852 4.361538,-5.46183 0.140695,-4.723746 4.220843,-3.98566 3.517369,-4.428512 7.597519,-0.738085 6.894044,-2.952341 5.487096,2.804724 h 6.894044 l 5.768486,4.576129 5.768486,2.361872 0.844168,4.723746 -0.562779,4.723745 -1.406948,6.347533 1.266253,4.723745 -4.361538,4.428512 -7.175433,-0.442851 -6.612655,5.018979 -6.612655,-1.623787 -2.813895,2.361873 z"
       id="path6-6" />
    <path
       style="display:inline;fill:#a87ca1;fill-opacity:1"
       d="m 87.01407,40.218166 -9.584703,8.269156 -1.503483,9.208833 -7.705349,-1.127613 -8.457091,3.570772 -8.457092,-0.37587 -10.148509,3.194901 -3.570772,-0.751742 -1.315547,-7.893285 -2.44316,-3.946642 -22.552243,22.364307 c 0,0 77.617303,14.846893 78.744915,12.591669 C 91.148648,83.067428 87.01407,40.218166 87.01407,40.218166 Z"
       id="path7-1"
       clip-path="url(#clipPath8-6)" />
    <path
       style="fill:#d78dcc;fill-opacity:1;stroke-width:1.12537"
       id="path57"
       d="m 70.082281,38.666211 c -4.085097,3.781018 -9.087915,6.820612 -14.052318,9.835969 -0.791813,0.459822 -1.583627,0.919643 -2.37544,1.379464 0,0 0.387212,0.193752 0.387212,0.193752 v 0 c 0.790901,-0.460579 1.581801,-0.921159 2.372701,-1.381738 4.96548,-3.02056 9.970742,-6.061689 14.07267,-9.83553 z" />
    <ellipse
       id="path58"
       style="fill:#d78dcc;stroke:#000000;stroke-width:1.12537"
       cx="477.84134"
       cy="94.535431"
       rx="0.0042364234"
       ry="0.0033450702" />
    <path
       style="fill:#d78dcc;fill-opacity:1;stroke-width:1.12537"
       d="m 73.91807,48.555363 c -1.376341,1.908954 -6.291058,7.130242 -10.098082,6.378737 -1.18801,-0.234512 -2.178018,-1.094391 -3.366027,-1.328903 -1.273687,-0.251425 -2.315794,-0.467723 -3.029425,-1.594685 -0.05018,-0.07924 -0.100354,-0.22616 0,-0.26578 0.200712,-0.07924 0.464855,0.0658 0.673207,0 0.975581,-0.308127 1.658233,-0.790821 2.692821,-1.063123"
       id="path60" />
  </g>
</svg>
